<svg version="1.1" id="Layer_1" xmlns="http://www.w3.org/2000/svg" xmlns:xlink="http://www.w3.org/1999/xlink" x="0px" y="0px"
	 width="100" height="50"  viewBox="0 0 1164 224" enable-background="new 0 0 1164 224" xml:space="preserve">
<path fill="none" opacity="1.000000" stroke="#000000" stroke-linecap="round" stroke-linejoin="round" stroke-width="6.000000"
	d="
M22.500000,68.500000 
	C23.286654,68.593361 24.677341,68.291992 24.430912,69.485741 
	C23.690277,73.073509 25.969666,76.038597 26.137775,79.493294 
	C26.370234,84.270363 29.691755,88.027359 32.658577,91.358780 
	C35.156578,94.163773 39.264915,94.145584 43.003391,92.834961 
	C44.361820,90.287666 44.419708,87.578041 44.153824,84.486771 
	C43.531139,77.247223 45.042782,70.408157 47.674049,63.378002 
	C50.417652,56.047710 55.686245,50.796177 59.780930,44.688335 
	C62.254635,40.998440 67.498322,39.164139 71.503319,36.504997 
	C71.811462,36.300396 72.271469,36.251408 72.484734,35.987656 
	C78.503563,28.544250 87.577477,29.772915 95.533775,28.167362 
	C99.218803,27.423737 102.564850,25.256861 107.110794,26.634365 
	C110.341721,27.613394 111.882339,28.893526 112.430603,31.514517 
	C114.154724,39.756767 115.792595,48.031071 116.003937,56.499901 
	C116.147636,62.258389 114.953163,63.163960 109.510017,60.975079 
	C103.421089,58.526505 85.868301,60.390411 81.932076,66.455917 
	C81.081512,67.766586 80.178001,68.884247 79.983887,70.498062 
	C78.617722,81.855415 82.396675,91.178520 91.535889,97.951569 
	C104.957489,107.898262 113.961998,120.707108 119.645668,136.447403 
	C125.938187,153.873810 119.302780,173.698776 104.997391,183.996368 
	C92.724831,192.830673 79.326866,196.306961 64.517815,191.939590 
	C59.859177,190.565689 54.824505,190.576187 50.486340,188.023209 
	C48.970486,187.131149 47.442616,188.237549 46.017864,188.575348 
	C42.812717,189.335297 39.771385,189.292145 37.015778,187.476059 
	C30.154274,182.953949 25.138634,176.594757 20.609224,169.925812 
	C19.117998,167.730179 19.337660,164.666672 20.500000,162.000000 
"/>
<path fill="none" opacity="1.000000" stroke="#000000" stroke-linecap="round" stroke-linejoin="round" stroke-width="6.000000"
	d="
M644.500000,68.500000 
	C645.286682,68.593361 646.677307,68.291985 646.430908,69.485733 
	C645.690247,73.073494 647.969666,76.038605 648.137817,79.493294 
	C648.370300,84.270363 651.691772,88.027359 654.658569,91.358788 
	C657.156616,94.163780 661.264893,94.145584 665.003418,92.834961 
	C666.361816,90.287666 666.419678,87.578041 666.153809,84.486771 
	C665.531128,77.247223 667.042725,70.408142 669.674011,63.377979 
	C672.417603,56.047699 677.686218,50.796165 681.780945,44.688328 
	C684.254578,40.998421 689.498291,39.164127 693.503296,36.504978 
	C693.811462,36.300377 694.271484,36.251442 694.484802,35.987717 
	C700.503601,28.544275 709.577454,29.772921 717.533752,28.167368 
	C721.218811,27.423742 724.564819,25.256838 729.110779,26.634356 
	C732.341675,27.613384 733.882324,28.893532 734.430542,31.514528 
	C736.154663,39.756779 737.792542,48.031071 738.003906,56.499901 
	C738.147583,62.258389 736.953125,63.163963 731.510010,60.975075 
	C725.421143,58.526512 707.868286,60.390388 703.932068,66.455910 
	C703.081482,67.766571 702.178040,68.884254 701.983826,70.498055 
	C700.617737,81.855415 704.396729,91.178505 713.535889,97.951553 
	C726.957458,107.898254 735.961975,120.707130 741.645630,136.447418 
	C747.938110,153.873810 741.302734,173.698761 726.997375,183.996353 
	C714.724854,192.830673 701.326843,196.306961 686.517822,191.939575 
	C681.859192,190.565674 676.824524,190.576157 672.486328,188.023178 
	C670.970459,187.131104 669.442627,188.237518 668.017883,188.575333 
	C664.812683,189.335281 661.771362,189.292114 659.015808,187.476028 
	C652.154297,182.953934 647.138550,176.594803 642.609192,169.925827 
	C641.117981,167.730209 641.337646,164.666672 642.500000,162.000000 
"/>
<path fill="none" opacity="1.000000" stroke="#000000" stroke-linecap="round" stroke-linejoin="round" stroke-width="5.000000"
	d="
M617.500000,56.000000 
	C612.898804,52.078403 607.223083,52.991806 602.006042,53.173412 
	C596.940125,53.349762 591.591064,53.212986 587.104065,52.085815 
	C580.120056,50.331390 575.120178,53.064484 570.088196,56.144066 
	C566.164612,58.545292 562.446411,61.117680 558.022522,62.568672 
	C556.872864,62.945755 555.843140,64.036514 555.026001,65.021553 
	C550.455444,70.531181 546.733154,76.477036 547.021118,83.999191 
	C547.578613,98.561569 547.229431,113.175041 544.791687,127.464462 
	C541.700256,145.585800 544.398010,163.976669 541.108826,182.019836 
	C540.754028,183.965775 540.254517,185.720200 539.523499,187.509598 
	C537.796692,191.736511 539.553345,194.481384 544.000000,194.488037 
	C562.833313,194.516251 581.670959,194.270523 600.497742,194.622391 
	C607.239807,194.748398 611.431396,186.936905 607.940552,181.538437 
	C605.789185,178.211395 605.964905,175.162796 606.882935,171.470886 
	C608.694763,164.183701 614.977905,160.880035 619.500000,156.000000 
"/>
<path fill="none" opacity="1.000000" stroke="#000000" stroke-linecap="round" stroke-linejoin="round" stroke-width="5.000000"
	d="
M904.500000,163.500000 
	C905.385376,157.352753 904.212524,151.069122 905.138000,145.021118 
	C906.881714,133.625610 910.305237,122.727989 915.863159,112.426178 
	C919.796021,105.136383 924.231689,98.655983 931.510498,94.518463 
	C939.092712,90.208527 947.415894,88.899506 955.999695,89.022446 
	C962.689880,89.118256 969.579773,87.647964 975.977173,90.550278 
	C982.834229,93.661156 990.519531,94.670189 996.587952,99.897896 
	C1003.105408,105.512451 1006.211243,113.046219 1008.771667,120.577621 
	C1011.346802,128.152191 1012.248840,136.256241 1011.081421,144.511520 
	C1008.947449,159.602005 1001.818237,171.569641 990.017822,181.022232 
	C981.423157,187.906860 971.597961,192.574768 960.968384,194.305862 
	C942.097534,197.379089 921.802551,193.463028 909.931824,174.542786 
	C909.274658,173.495407 909.446899,172.156693 908.912720,171.581009 
	C906.352539,168.821823 906.462036,164.501694 901.123474,163.046921 
	C896.151245,161.691956 894.930664,154.859451 893.081421,149.969208 
	C890.098694,142.081497 891.123230,133.714798 890.982483,125.500298 
	C890.857544,118.208183 893.128540,111.632065 895.866394,104.945297 
	C899.783020,95.379974 905.424683,87.212044 913.560974,81.080925 
	C925.297485,72.236839 938.666260,68.692299 953.501526,68.819679 
	C969.955566,68.960953 980.208252,78.378136 989.469849,90.023964 
	C990.565796,91.402046 992.043274,92.870346 991.000000,95.000000 
"/>
<path fill="none" opacity="1.000000" stroke="#000000" stroke-linecap="round" stroke-linejoin="round" stroke-width="5.000000"
	d="
M316.250000,73.250000 
	C312.285278,68.723663 309.801544,62.828121 303.989227,60.115860 
	C303.979614,56.294258 306.025848,55.159386 309.494537,54.920528 
	C314.088776,54.604164 318.636810,55.430820 322.944794,56.280067 
	C327.034729,57.086330 330.862366,56.280491 334.449249,55.691093 
	C338.697571,54.993004 342.837708,55.394279 347.001617,55.018009 
	C349.437653,54.797874 351.129822,56.363720 352.449280,58.039921 
	C354.157196,60.209602 355.452759,62.698669 357.008026,64.994568 
	C364.510132,76.069305 369.866028,88.275703 374.878876,100.549461 
	C381.438721,116.610924 385.277710,133.619431 390.735565,150.087631 
	C394.502258,161.452896 398.125488,172.855087 402.527924,183.988953 
	C406.474426,193.969681 402.725342,200.537506 391.996429,200.891739 
	C383.015015,201.188278 373.989624,201.465240 364.997070,200.528122 
	C361.883240,200.203629 359.341492,199.117935 357.479095,196.514954 
	C356.719910,195.453918 356.004181,194.555954 354.557007,193.878265 
	C345.373383,189.577835 342.127777,181.116547 340.000000,172.000000 
"/>
<path fill="none" opacity="1.000000" stroke="#000000" stroke-linecap="round" stroke-linejoin="round" stroke-width="5.000000"
	d="
M1135.500000,118.500000 
	C1127.982788,118.973297 1120.477661,119.485664 1112.985352,120.377045 
	C1109.312256,120.814049 1108.956177,122.594589 1108.970825,125.500145 
	C1109.037598,138.666489 1108.992065,151.833328 1109.003052,165.000000 
	C1109.009277,172.369034 1108.625488,179.689789 1107.643188,187.019180 
	C1107.239380,190.031021 1106.393066,190.997238 1103.500732,191.043854 
	C1094.942383,191.181763 1086.730591,193.499542 1078.537964,195.645157 
	C1077.091309,196.024033 1075.800171,196.952209 1074.526123,195.966263 
	C1069.325439,191.942169 1063.296875,189.092453 1058.476074,184.525269 
	C1057.086792,183.209091 1056.985352,181.696594 1056.988159,179.999985 
	C1057.009766,167.000015 1056.819946,153.995911 1057.114624,141.002594 
	C1057.198242,137.318924 1058.378906,133.568939 1059.581665,130.027725 
	C1060.764893,126.544121 1064.216187,126.525871 1066.969604,127.137054 
	C1069.773804,127.759529 1072.333374,127.769325 1075.107666,126.968941 
	C1078.773071,131.537872 1075.730225,136.527847 1075.229858,140.969574 
	C1073.860229,153.129913 1073.182617,165.357986 1072.380859,177.525101 
	C1072.061890,182.366547 1072.653442,187.257706 1071.000000,192.000000 
"/>
<path fill="none" opacity="1.000000" stroke="#000000" stroke-linecap="round" stroke-linejoin="round" stroke-width="5.000000"
	d="
M521.500000,118.500000 
	C513.982788,118.973297 506.477722,119.485664 498.985382,120.377060 
	C495.312256,120.814049 494.956055,122.594589 494.970795,125.500145 
	C495.037506,138.666489 494.992035,151.833328 495.003082,165.000000 
	C495.009277,172.369034 494.625488,179.689789 493.643127,187.019180 
	C493.239471,190.031021 492.393158,190.997238 489.500702,191.043854 
	C480.942291,191.181763 472.730560,193.499527 464.538025,195.645142 
	C463.091248,196.024048 461.800232,196.952209 460.526093,195.966293 
	C455.325439,191.942154 449.296906,189.092453 444.476074,184.525269 
	C443.086823,183.209091 442.985291,181.696594 442.988129,179.999985 
	C443.009735,167.000015 442.819977,153.995911 443.114655,141.002594 
	C443.198212,137.318924 444.378845,133.568909 445.581604,130.027725 
	C446.764832,126.544090 450.216187,126.525841 452.969574,127.137024 
	C455.773834,127.759499 458.333344,127.769325 461.107727,126.968941 
	C464.773132,131.537872 461.730194,136.527847 461.229889,140.969574 
	C459.860260,153.129913 459.182556,165.357986 458.380829,177.525101 
	C458.061859,182.366547 458.653442,187.257706 457.000000,192.000000 
"/>
<path fill="none" opacity="1.000000" stroke="#000000" stroke-linecap="round" stroke-linejoin="round" stroke-width="5.000000"
	d="
M819.500000,65.500000 
	C820.667236,61.585106 824.314331,63.127125 825.931091,63.695827 
	C836.951355,67.572098 846.933472,73.333694 854.379333,82.597015 
	C855.322388,83.770409 856.552551,85.583809 855.671143,88.060905 
	C854.769531,90.594711 857.086365,92.818581 859.047424,94.181763 
	C866.375549,99.275749 869.565613,106.282158 871.255676,114.950142 
	C872.667908,122.193214 872.135803,129.311920 870.675537,135.928391 
	C868.367737,146.384979 861.818604,154.424683 851.529541,159.065506 
	C840.914185,163.853500 830.134399,166.520370 818.500000,164.000000 
"/>
<path fill="none" opacity="1.000000" stroke="#000000" stroke-linecap="round" stroke-linejoin="round" stroke-width="5.000000"
	d="
M355.500000,193.500000 
	C358.320221,188.129883 354.941071,183.110626 354.228333,178.038177 
	C353.870392,175.490814 353.585144,172.431732 351.712280,170.101242 
	C346.253937,168.983643 340.820740,171.907547 334.979675,171.158585 
	C331.333954,170.691132 330.936249,174.343430 331.089539,176.994827 
	C331.315643,180.906876 329.182953,184.193634 328.754700,187.972198 
	C328.427460,190.859283 325.986603,193.149826 321.998718,193.097595 
	C312.485748,192.973022 302.949524,192.483765 293.480591,194.404266 
	C289.672302,195.176666 286.415619,193.101318 285.126221,189.455353 
	C284.290192,187.091415 282.923248,185.841095 281.051422,184.431717 
	C275.194702,180.021957 272.643066,173.272522 269.565704,166.967941 
	C268.877930,165.558914 269.753845,163.923737 270.491516,162.495621 
	C275.324158,153.139267 277.994446,142.996155 280.932098,132.980087 
	C283.195831,125.261894 285.756897,117.633339 287.617523,109.777832 
	C288.954437,104.133293 291.109955,98.679253 292.599274,93.026154 
	C294.341217,86.414261 296.760864,79.974617 299.025757,73.509018 
	C300.508698,69.275650 300.150970,64.293716 304.000000,61.000000 
"/>
<path fill="none" opacity="1.000000" stroke="#000000" stroke-linecap="round" stroke-linejoin="round" stroke-width="5.000000"
	d="
M199.000000,148.500000 
	C200.168747,154.085144 201.393860,160.357986 205.731430,163.699600 
	C209.930893,166.934799 214.481644,170.044174 218.913986,173.123810 
	C222.504211,175.618301 225.205841,179.220917 229.414047,181.184235 
	C231.258301,182.044647 232.405197,181.822311 233.459961,180.951492 
	C238.884338,176.473099 245.762909,175.477798 252.031494,173.082397 
	C255.909363,171.600540 257.660858,168.491547 254.937134,165.558380 
	C244.030350,153.812927 235.629044,140.195374 225.695389,127.098862 
	C233.536667,110.445961 242.866104,94.222069 249.500000,76.750000 
"/>
<path fill="none" opacity="1.000000" stroke="#000000" stroke-linecap="round" stroke-linejoin="round" stroke-width="5.000000"
	d="
M201.000000,167.500000 
	C197.549942,170.849274 199.216721,175.129181 199.067734,179.002609 
	C198.819427,185.457916 198.843735,185.000931 192.541656,187.123672 
	C185.506119,189.493469 178.159607,191.055161 171.504715,194.509094 
	C168.887207,195.867599 166.281433,196.669556 163.500000,195.000000 
"/>
<path fill="none" opacity="1.000000" stroke="#000000" stroke-linecap="round" stroke-linejoin="round" stroke-width="6.000000"
	d="
M723.500000,26.000000 
	C722.825012,22.403770 719.996643,21.519743 717.020752,20.442608 
	C709.514954,17.725819 702.004883,16.170467 693.979370,17.904398 
	C691.701660,18.396482 689.738647,19.656048 687.496033,19.972044 
	C676.904724,21.464451 668.811890,26.763432 661.860229,34.880280 
	C656.456360,41.189846 648.668518,55.549259 648.049072,64.003593 
	C647.912781,65.863792 647.302063,67.282410 646.000000,68.500000 
"/>
<path fill="none" opacity="1.000000" stroke="#000000" stroke-linecap="round" stroke-linejoin="round" stroke-width="6.000000"
	d="
M101.500000,26.000000 
	C100.825012,22.403770 97.996628,21.519726 95.020775,20.442596 
	C87.514946,17.725807 80.004913,16.170475 71.979347,17.904404 
	C69.701683,18.396496 67.738609,19.656052 65.496063,19.972048 
	C54.904736,21.464458 46.811871,26.763435 39.860214,34.880280 
	C34.456367,41.189873 26.668509,55.549259 26.049109,64.003601 
	C25.912823,65.863792 25.302086,67.282410 24.000000,68.500000 
"/>
<path fill="none" opacity="1.000000" stroke="#000000" stroke-linecap="round" stroke-linejoin="round" stroke-width="5.000000"
	d="
M944.500000,142.500000 
	C941.687866,146.945847 942.896973,152.991455 947.500000,157.499969 
	C951.044067,160.971207 957.057190,160.914307 962.010803,157.515778 
	C967.139771,153.996948 968.836914,148.509521 969.857239,142.973694 
	C970.570496,139.104248 970.464844,134.974731 969.510010,130.997589 
	C968.277893,125.865135 965.616211,122.217140 959.532288,121.473785 
	C956.621277,123.143982 954.688599,125.346031 955.921692,129.523117 
	C956.653015,132.000656 955.619751,134.421539 953.476868,135.967972 
	C950.665771,137.996552 950.273376,143.456726 945.000000,142.000000 
"/>
<path fill="none" opacity="1.000000" stroke="#000000" stroke-linecap="round" stroke-linejoin="round" stroke-width="5.000000"
	d="
M193.500000,123.500000 
	C194.704834,120.261147 194.023361,117.346298 193.332901,113.932671 
	C192.134628,108.008369 192.387177,101.580162 193.240601,95.533958 
	C193.716858,92.159836 191.271927,88.593857 194.000000,85.500000 
	C191.822586,76.765594 199.806793,73.541481 203.532822,68.022156 
	C204.432617,66.689331 205.765686,65.948265 207.507339,66.987717 
	C212.451309,69.938354 215.819962,74.371582 219.004089,78.997185 
	C220.375381,80.989319 219.266357,83.303116 218.370804,84.393929 
	C212.505188,91.538429 209.561920,100.579079 203.407761,107.416985 
	C200.415009,110.742226 200.239075,116.078972 195.500000,118.000000 
"/>
<path fill="none" opacity="1.000000" stroke="#000000" stroke-linecap="round" stroke-linejoin="round" stroke-width="6.000000"
	d="
M43.500000,93.500000 
	C47.000000,96.666664 50.279503,100.129433 54.047920,102.935654 
	C60.959072,108.082153 65.847687,115.151299 71.986259,121.014381 
	C73.730164,122.680016 75.189926,124.292053 77.987106,124.612526 
	C83.633331,125.259415 86.168900,130.147980 89.567924,133.939102 
	C93.111046,137.890915 93.949760,142.838150 95.417892,147.525711 
	C96.865204,152.146820 92.107658,160.493713 86.975273,162.434616 
	C82.090080,164.282028 76.749153,167.135742 72.090370,162.410889 
	C69.108139,159.386383 66.563667,155.726547 64.601479,151.947311 
	C61.600410,146.167175 58.374691,141.540710 51.018734,140.811127 
	C47.215343,140.433899 43.573925,138.283249 38.957325,139.095535 
	C39.249393,141.927490 38.373959,144.214767 36.177921,146.659805 
	C32.297344,150.980392 27.167826,154.034439 24.000000,159.000000 
"/>
<path fill="none" opacity="1.000000" stroke="#000000" stroke-linecap="round" stroke-linejoin="round" stroke-width="6.000000"
	d="
M665.500000,93.499992 
	C669.000000,96.666656 672.279541,100.129387 676.047913,102.935616 
	C682.959045,108.082138 687.847656,115.151314 693.986267,121.014381 
	C695.730164,122.680023 697.189880,124.292053 699.987122,124.612526 
	C705.633362,125.259407 708.168884,130.147964 711.567932,133.939117 
	C715.111023,137.890900 715.949707,142.838165 717.417847,147.525726 
	C718.865173,152.146851 714.107666,160.493729 708.975281,162.434616 
	C704.090088,164.282028 698.749146,167.135727 694.090393,162.410873 
	C691.108154,159.386383 688.563660,155.726547 686.601501,151.947296 
	C683.600403,146.167175 680.374695,141.540695 673.018738,140.811127 
	C669.215332,140.433899 665.573914,138.283249 660.957336,139.095535 
	C661.249390,141.927490 660.373901,144.214752 658.177917,146.659775 
	C654.297302,150.980377 649.167847,154.034439 646.000000,159.000000 
"/>
<path fill="none" opacity="1.000000" stroke="#000000" stroke-linecap="round" stroke-linejoin="round" stroke-width="5.000000"
	d="
M770.000000,78.500000 
	C773.488708,82.129906 777.587463,84.579124 782.473572,86.085670 
	C788.536865,87.955193 791.432678,92.616745 788.754211,97.874794 
	C786.326111,102.641357 786.604004,107.504921 786.758240,111.991127 
	C787.279785,127.169724 786.760559,142.334198 786.922241,157.500824 
	C787.016235,166.329605 786.264038,175.164902 786.038513,184.000977 
	C785.962097,186.994781 786.333313,190.000000 786.500000,193.000000 
"/>
<path fill="none" opacity="1.000000" stroke="#000000" stroke-linecap="round" stroke-linejoin="round" stroke-width="3.000000"
	d="
M699.000000,31.250000 
	C696.952087,29.234924 694.697998,29.172596 691.983032,29.939953 
	C684.866638,31.951281 677.695618,33.795090 670.482361,35.421726 
	C668.318787,35.909641 665.862122,35.819706 664.000000,34.000000 
"/>
<path fill="none" opacity="1.000000" stroke="#000000" stroke-linecap="round" stroke-linejoin="round" stroke-width="3.000000"
	d="
M77.000000,31.250000 
	C74.952095,29.234924 72.698051,29.172598 69.983025,29.939947 
	C62.866665,31.951263 55.695629,33.795086 48.482349,35.421734 
	C46.318768,35.909641 43.862118,35.819706 42.000000,34.000000 
"/>
<path fill="none" opacity="1.000000" stroke="#000000" stroke-linecap="round" stroke-linejoin="round" stroke-width="6.000000"
	d="
M660.500000,139.500000 
	C653.171997,140.943420 647.702515,145.951950 641.569702,149.616699 
	C638.925842,151.196518 638.940186,154.828598 639.669739,157.452820 
	C640.327026,159.817291 642.198303,161.478729 645.493347,161.637878 
	C653.336365,162.016739 658.542786,166.545563 662.097351,173.449875 
	C663.247070,175.682953 665.465271,177.386566 667.125549,179.396271 
	C669.070618,181.750656 670.121582,184.427063 671.500000,187.000000 
"/>
<path fill="none" opacity="1.000000" stroke="#000000" stroke-linecap="round" stroke-linejoin="round" stroke-width="6.000000"
	d="
M38.500000,139.500000 
	C31.171980,140.943420 25.702524,145.951965 19.569723,149.616684 
	C16.925880,151.196548 16.940115,154.828613 17.669661,157.452835 
	C18.326996,159.817322 20.198324,161.478729 23.493340,161.637878 
	C31.336323,162.016739 36.542782,166.545563 40.097393,173.449860 
	C41.247097,175.682953 43.465309,177.386536 45.125572,179.396255 
	C47.070564,181.750656 48.121555,184.427063 49.500000,187.000000 
"/>
<path fill="none" opacity="1.000000" stroke="#000000" stroke-linecap="round" stroke-linejoin="round" stroke-width="13.000000"
	d="
M344.500000,116.500000 
	C343.625122,121.462509 343.046692,126.418900 342.660583,131.474075 
	C342.010681,139.983414 347.253296,142.693604 353.000000,145.750000 
"/>
<path fill="none" opacity="1.000000" stroke="#000000" stroke-linecap="round" stroke-linejoin="round" stroke-width="5.000000"
	d="
M193.500000,77.500000 
	C189.333328,73.166664 184.953064,69.011482 181.112274,64.406364 
	C179.709549,62.724503 177.869019,61.563660 176.571289,62.156151 
	C172.797226,63.879215 168.744324,62.555477 164.966721,63.906986 
	C162.645813,64.737335 160.106567,65.134979 157.498291,65.056953 
	C152.261627,64.900269 149.077682,67.696854 148.533844,73.003471 
	C147.324203,84.806824 146.503769,96.640350 145.705948,108.480186 
	C144.940933,119.833504 146.614517,131.337601 144.317505,142.462311 
	C142.254166,152.455261 142.633896,162.926773 138.275772,173.014313 
	C144.974136,179.014725 149.610977,188.055740 160.500000,188.500000 
"/>
<path fill="none" opacity="1.000000" stroke="#000000" stroke-linecap="round" stroke-linejoin="round" stroke-width="6.000000"
	d="
M1135.500000,91.750000 
	C1134.077759,92.692535 1132.354492,91.627319 1132.120972,90.957802 
	C1129.457642,83.321922 1121.115356,81.132874 1117.032837,74.978203 
	C1113.502686,69.656197 1108.855469,68.320541 1102.505371,68.205566 
	C1095.563110,68.079887 1088.824829,69.109741 1082.004395,69.565926 
	C1067.823242,70.514420 1053.656982,71.732193 1039.507812,73.082497 
	C1036.560547,73.363762 1033.777954,73.608994 1031.000000,72.500000 
"/>
<path fill="none" opacity="1.000000" stroke="#000000" stroke-linecap="round" stroke-linejoin="round" stroke-width="6.000000"
	d="
M521.500000,91.750000 
	C520.077820,92.692535 518.354492,91.627327 518.120972,90.957809 
	C515.457520,83.321953 507.115417,81.132874 503.032898,74.978180 
	C499.502716,69.656204 494.855438,68.320541 488.505341,68.205559 
	C481.563019,68.079880 474.824829,69.109756 468.004395,69.565933 
	C453.823151,70.514427 439.657013,71.732193 425.507874,73.082497 
	C422.560577,73.363770 419.777893,73.608994 417.000000,72.500000 
"/>
<path fill="none" opacity="1.000000" stroke="#000000" stroke-linecap="round" stroke-linejoin="round" stroke-width="5.000000"
	d="
M815.000000,190.000031 
	C814.166687,190.333359 813.295105,191.027847 812.505920,190.944351 
	C804.309814,190.077225 796.516357,193.186096 788.497437,193.280777 
	C785.646423,193.314453 783.600708,195.734695 781.017273,194.943619 
	C774.353699,192.903183 767.347900,191.864334 761.430420,187.596512 
	C759.115967,185.927277 758.764709,183.497498 759.653320,182.097321 
	C762.747314,177.222122 760.999695,171.921219 761.243164,166.987320 
	C761.712158,157.482803 760.915039,148.032211 762.735168,138.449692 
	C764.207642,130.697723 763.356689,122.500404 763.494324,114.499901 
	C763.683655,103.500290 764.007141,92.498474 763.910461,81.500786 
	C763.874207,77.373383 767.842102,78.525864 769.250000,76.500000 
"/>
<path fill="none" opacity="1.000000" stroke="#000000" stroke-linecap="round" stroke-linejoin="round" stroke-width="3.000000"
	d="
M681.000000,44.000000 
	C675.184204,41.745430 670.113708,44.807125 665.050476,46.639477 
	C661.406860,47.958076 658.059937,49.941917 654.000000,49.500000 
"/>
<path fill="none" opacity="1.000000" stroke="#000000" stroke-linecap="round" stroke-linejoin="round" stroke-width="3.000000"
	d="
M59.000000,44.000000 
	C53.184181,41.745430 48.113674,44.807137 43.050476,46.639481 
	C39.406837,47.958099 36.059917,49.941917 32.000000,49.500000 
"/>
<path fill="none" opacity="1.000000" stroke="#000000" stroke-linecap="round" stroke-linejoin="round" stroke-width="5.000000"
	d="
M342.000000,73.000000 
	C335.500000,74.901207 328.965912,74.184677 322.510559,72.945068 
	C317.136078,71.913033 316.554016,72.397331 315.419403,77.482010 
	C313.730347,85.051399 311.336548,92.461082 309.539520,100.009407 
	C307.048737,110.471924 304.963470,121.031204 302.455780,131.489395 
	C300.684204,138.877518 298.620361,146.202240 296.466339,153.490051 
	C294.285583,160.868484 291.606628,168.105072 289.590759,175.524673 
	C288.499359,179.541733 286.311676,182.750549 284.000000,186.000000 
"/>
<path fill="none" opacity="1.000000" stroke="#000000" stroke-linecap="round" stroke-linejoin="round" stroke-width="6.000000"
	d="
M60.500000,147.000000 
	C52.663757,152.495850 44.091499,156.946945 37.014442,163.515564 
	C36.240803,164.233643 35.666664,165.166672 35.000000,166.000000 
"/>
<path fill="none" opacity="1.000000" stroke="#000000" stroke-linecap="round" stroke-linejoin="round" stroke-width="6.000000"
	d="
M682.500000,147.000000 
	C674.663757,152.495850 666.091492,156.946945 659.014404,163.515533 
	C658.240784,164.233627 657.666687,165.166672 657.000000,166.000000 
"/>
<path fill="none" opacity="1.000000" stroke="#000000" stroke-linecap="round" stroke-linejoin="round" stroke-width="5.000000"
	d="
M854.500000,89.500000 
	C852.671631,89.538963 851.143494,88.781296 849.446289,88.142715 
	C843.012878,85.722137 836.684875,83.242516 829.517029,82.751633 
	C822.182556,82.249352 815.230530,84.426178 807.993896,84.178734 
	C805.198059,84.083130 802.017456,85.519524 799.580139,87.121895 
	C796.552368,89.112473 793.334717,90.354828 790.000000,91.500000 
"/>
<path fill="none" opacity="1.000000" stroke="#000000" stroke-linecap="round" stroke-linejoin="round" stroke-width="5.000000"
	d="
M819.500000,64.000000 
	C813.833313,60.768494 807.889282,62.298012 802.566895,64.188408 
	C795.129883,66.829849 787.148743,67.473999 779.974915,70.948242 
	C776.742188,72.513832 772.932556,72.938530 770.500000,76.000000 
"/>
<path fill="none" opacity="1.000000" stroke="#000000" stroke-linecap="round" stroke-linejoin="round" stroke-width="5.000000"
	d="
M1133.500000,92.500000 
	C1132.946533,100.833336 1132.525146,109.166664 1133.500000,117.500000 
"/>
<path fill="none" opacity="1.000000" stroke="#000000" stroke-linecap="round" stroke-linejoin="round" stroke-width="5.000000"
	d="
M519.500000,92.500000 
	C518.946533,100.833336 518.525208,109.166664 519.500000,117.500000 
"/>
<path fill="none" opacity="1.000000" stroke="#000000" stroke-linecap="round" stroke-linejoin="round" stroke-width="5.000000"
	d="
M817.500000,161.500000 
	C818.038574,166.115402 816.650269,170.518234 815.987976,174.998215 
	C815.349121,179.319473 814.901978,183.563080 815.283020,188.018555 
	C815.524292,190.839813 816.428223,191.071793 818.500000,191.000000 
"/>
<path fill="none" opacity="1.000000" stroke="#000000" stroke-linecap="round" stroke-linejoin="round" stroke-width="3.000000"
	d="
M672.000000,141.500000 
	C668.554382,147.034225 662.549561,149.697174 657.931641,153.925323 
	C655.256531,156.374664 652.559937,158.656616 651.000000,162.000000 
"/>
<path fill="none" opacity="1.000000" stroke="#000000" stroke-linecap="round" stroke-linejoin="round" stroke-width="3.000000"
	d="
M50.000000,141.500000 
	C46.554367,147.034225 40.549549,149.697205 35.931656,153.925354 
	C33.256580,156.374664 30.559940,158.656616 29.000000,162.000000 
"/>
<path fill="none" opacity="1.000000" stroke="#000000" stroke-linecap="round" stroke-linejoin="round" stroke-width="5.000000"
	d="
M606.500000,71.500000 
	C607.766418,68.101891 610.010620,65.482086 613.006958,63.510597 
	C615.557800,61.832245 617.375305,59.513107 619.231812,57.038170 
	C625.109070,58.006008 625.444641,58.687290 625.062073,65.003761 
	C624.789429,69.505585 624.459106,74.089447 626.142395,78.908073 
	C620.028076,83.361580 614.166809,88.384850 607.000000,91.500000 
"/>
<path fill="none" opacity="1.000000" stroke="#000000" stroke-linecap="round" stroke-linejoin="round" stroke-width="5.000000"
	d="
M613.000000,123.500000 
	C615.059937,126.974884 613.265930,129.511932 611.009399,132.008484 
	C605.862976,137.702240 598.625854,140.272842 592.465942,144.449768 
	C591.888245,144.841507 591.110352,145.167389 589.950439,144.601608 
	C585.685730,142.521317 580.994324,143.912735 576.499207,143.508606 
	C575.006531,143.374390 573.607300,144.008728 573.562805,145.501877 
	C573.402527,150.877335 571.438660,156.453674 575.000000,161.500000 
"/>
<path fill="none" opacity="1.000000" stroke="#000000" stroke-linecap="round" stroke-linejoin="round" stroke-width="3.000000"
	d="
M50.000000,55.500000 
	C47.740734,54.277737 45.774574,55.263359 44.019577,56.527184 
	C39.930557,59.471825 35.442799,61.683327 31.029169,64.054298 
	C29.626070,64.808037 28.349188,64.460159 27.000000,64.500000 
"/>
<path fill="none" opacity="1.000000" stroke="#000000" stroke-linecap="round" stroke-linejoin="round" stroke-width="3.000000"
	d="
M672.000000,55.500000 
	C669.740723,54.277737 667.774597,55.263340 666.019531,56.527153 
	C661.930542,59.471802 657.442810,61.683342 653.029175,64.054314 
	C651.626038,64.808052 650.349182,64.460159 649.000000,64.500000 
"/>
<path fill="none" opacity="1.000000" stroke="#000000" stroke-linecap="round" stroke-linejoin="round" stroke-width="7.000000"
	d="
M837.000000,119.000000 
	C840.525024,124.298164 839.471008,128.263428 833.493225,131.989105 
	C832.038818,132.895584 830.568787,134.155502 828.982910,134.378693 
	C826.907532,134.670807 823.616150,135.470337 824.068909,131.507874 
	C824.544861,127.342072 823.317505,123.187813 824.800598,118.930542 
	C825.562561,116.743523 825.428406,113.909241 828.015930,113.679771 
	C830.274109,113.479492 833.028137,113.558029 835.001892,115.498062 
	C835.848877,116.330490 836.900635,117.049675 836.500000,118.500000 
"/>
<path fill="none" opacity="1.000000" stroke="#000000" stroke-linecap="round" stroke-linejoin="round" stroke-width="5.000000"
	d="
M621.000000,157.000000 
	C624.301636,159.611938 623.056335,163.310760 622.893127,166.494522 
	C622.587158,172.463516 622.323059,172.449982 625.500000,176.000000 
	C622.507446,183.524063 616.975708,187.500000 609.500000,187.500000 
"/>
<path fill="none" opacity="1.000000" stroke="#000000" stroke-linecap="round" stroke-linejoin="round" stroke-width="5.000000"
	d="
M173.500000,78.500000 
	C169.420853,86.369087 169.433762,94.989311 169.029083,103.501381 
	C168.569778,113.162056 168.254044,122.831497 168.029800,132.500687 
	C167.895523,138.290268 167.401031,143.923141 165.647141,149.545898 
	C164.527908,153.134079 164.141373,157.264465 164.665970,160.976547 
	C165.409195,166.235703 164.110657,171.318787 164.423508,176.504608 
	C164.672394,180.630432 162.343933,184.254990 161.306534,188.083069 
	C160.375443,191.518890 164.626923,195.324020 162.500000,199.500000 
"/>
<path fill="none" opacity="1.000000" stroke="#000000" stroke-linecap="round" stroke-linejoin="round" stroke-width="6.000000"
	d="
M517.000000,90.500000 
	C515.414246,91.237984 513.781372,91.587807 511.999237,91.519890 
	C495.116608,90.876404 478.316071,91.800529 461.484406,93.328354 
	C451.235535,94.258659 440.833344,93.500000 430.500000,93.500000 
"/>
<path fill="none" opacity="1.000000" stroke="#000000" stroke-linecap="round" stroke-linejoin="round" stroke-width="6.000000"
	d="
M1131.000000,90.500000 
	C1129.414307,91.237984 1127.781372,91.587814 1125.999268,91.519890 
	C1109.116577,90.876411 1092.316162,91.800529 1075.484375,93.328346 
	C1065.235474,94.258652 1054.833374,93.500000 1044.500000,93.500000 
"/>
<path fill="none" opacity="1.000000" stroke="#000000" stroke-linecap="round" stroke-linejoin="round" stroke-width="5.000000"
	d="
M421.500000,74.500000 
	C421.650696,80.102654 425.854095,83.836739 428.166504,88.415916 
	C429.024170,90.114334 430.182098,92.005959 429.865448,93.470924 
	C427.772125,103.156136 429.161102,112.824615 429.732300,122.333107 
	C428.398193,123.759476 426.867798,123.679611 425.506470,123.459953 
	C420.040588,122.578033 411.005737,112.699608 411.104492,107.001808 
	C411.232239,99.629570 410.628937,92.324432 413.114441,84.871422 
	C414.570374,80.505539 415.000305,75.511978 416.750000,71.000000 
"/>
<path fill="none" opacity="1.000000" stroke="#000000" stroke-linecap="round" stroke-linejoin="round" stroke-width="5.000000"
	d="
M1035.500000,74.500000 
	C1035.650757,80.102654 1039.854126,83.836723 1042.166504,88.415909 
	C1043.024170,90.114326 1044.182007,92.005943 1043.865356,93.470909 
	C1041.772095,103.156128 1043.161133,112.824615 1043.732300,122.333107 
	C1042.398193,123.759476 1040.867798,123.679619 1039.506470,123.459969 
	C1034.040649,122.578041 1025.005981,112.699600 1025.104614,107.001816 
	C1025.232422,99.629578 1024.628906,92.324440 1027.114380,84.871414 
	C1028.570435,80.505554 1029.000244,75.511978 1030.750000,71.000000 
"/>
<path fill="none" opacity="1.000000" stroke="#000000" stroke-linecap="round" stroke-linejoin="round" stroke-width="6.000000"
	d="
M248.500000,77.000000 
	C244.000000,71.666672 239.357071,66.444122 235.085739,60.933552 
	C233.777405,59.245632 231.878952,57.347023 230.603317,58.161770 
	C225.001740,61.739532 219.181335,59.286747 213.498596,59.451664 
	C207.296921,59.631638 207.292145,59.467258 206.000000,66.000000 
"/>
<path fill="none" opacity="1.000000" stroke="#000000" stroke-linecap="round" stroke-linejoin="round" stroke-width="5.000000"
	d="
M153.000000,68.500000 
	C158.383286,73.948143 164.496750,78.357201 171.500000,81.500000 
"/>
<path fill="none" opacity="1.000000" stroke="#000000" stroke-linecap="round" stroke-linejoin="round" stroke-width="5.000000"
	d="
M341.750000,71.500000 
	C341.990936,73.846924 344.081055,73.526001 345.510834,73.964737 
	C350.649902,75.541687 355.833344,75.551094 361.000000,74.000000 
"/>
<path fill="none" opacity="1.000000" stroke="#000000" stroke-linecap="round" stroke-linejoin="round" stroke-width="3.000000"
	d="
M666.500000,69.000000 
	C663.624573,68.707047 661.290466,69.657188 658.944153,71.425949 
	C655.795837,73.799355 652.375122,75.882835 648.500000,77.000000 
"/>
<path fill="none" opacity="1.000000" stroke="#000000" stroke-linecap="round" stroke-linejoin="round" stroke-width="5.000000"
	d="
M954.500000,126.500000 
	C947.183960,128.233749 942.367737,135.698883 944.500000,142.000000 
"/>
<path fill="none" opacity="1.000000" stroke="#000000" stroke-linecap="round" stroke-linejoin="round" stroke-width="3.000000"
	d="
M44.500000,69.000000 
	C41.624569,68.707047 39.290424,69.657143 36.944149,71.425911 
	C33.795830,73.799309 30.375135,75.882835 26.500000,77.000000 
"/>
<path fill="none" opacity="1.000000" stroke="#000000" stroke-linecap="round" stroke-linejoin="round" stroke-width="5.000000"
	d="
M191.000000,76.500000 
	C185.480316,79.234940 179.676575,80.549522 173.500000,80.000000 
"/>
<path fill="none" opacity="1.000000" stroke="#000000" stroke-linecap="round" stroke-linejoin="round" stroke-width="5.000000"
	d="
M429.500000,123.500000 
	C432.767700,126.525124 437.088837,126.152534 441.015717,126.919594 
	C442.778778,127.263985 444.581116,127.174011 446.000000,128.500000 
"/>
<path fill="none" opacity="1.000000" stroke="#000000" stroke-linecap="round" stroke-linejoin="round" stroke-width="7.000000"
	d="
M552.500000,70.500000 
	C553.927368,71.797630 555.634644,72.024506 557.500000,72.022118 
	C570.341309,72.005653 583.190247,71.771965 595.999695,73.003113 
	C599.194397,73.310165 602.285828,71.764618 605.500000,72.500000 
"/>
<path fill="none" opacity="1.000000" stroke="#000000" stroke-linecap="round" stroke-linejoin="round" stroke-width="5.000000"
	d="
M246.000000,75.000000 
	C243.182983,76.490089 240.243607,77.352013 236.998795,77.011505 
	C231.129227,76.395546 225.643631,78.509995 220.000000,79.500000 
"/>
<path fill="none" opacity="1.000000" stroke="#000000" stroke-linecap="round" stroke-linejoin="round" stroke-width="5.000000"
	d="
M1043.500000,123.500000 
	C1046.767700,126.525124 1051.088745,126.152519 1055.015747,126.919586 
	C1056.778809,127.263969 1058.581177,127.174011 1060.000000,128.500000 
"/>
<path fill="none" opacity="1.000000" stroke="#000000" stroke-linecap="round" stroke-linejoin="round" stroke-width="6.000000"
	d="
M594.000000,95.000000 
	C592.922485,93.821678 591.784546,92.714073 590.001221,93.007339 
	C585.353088,93.771683 580.670959,93.450935 576.000000,93.501671 
	C573.679443,93.526878 573.107788,95.479210 573.088562,97.001122 
	C573.023376,102.164856 573.101807,107.354996 573.582458,112.492287 
	C573.896057,115.843758 579.381897,116.684341 582.489563,113.987991 
	C583.555115,113.063515 584.362671,111.787727 585.523743,111.036751 
	C590.556824,107.781364 594.396484,102.721741 602.069641,104.438850 
	C607.392273,105.629951 611.390686,107.374420 612.553955,112.988823 
	C613.222839,116.217110 612.828979,119.333336 612.500000,122.500000 
"/>
<path fill="none" opacity="1.000000" stroke="#000000" stroke-linecap="round" stroke-linejoin="round" stroke-width="3.000000"
	d="
M93.500000,145.000000 
	C88.409431,146.394958 84.332062,150.829514 78.500000,150.000000 
"/>
<path fill="none" opacity="1.000000" stroke="#000000" stroke-linecap="round" stroke-linejoin="round" stroke-width="3.000000"
	d="
M715.500000,145.000000 
	C710.409424,146.394958 706.332031,150.829514 700.500000,150.000000 
"/>
<path fill="none" opacity="1.000000" stroke="#000000" stroke-linecap="round" stroke-linejoin="round" stroke-width="6.000000"
	d="
M609.000000,108.500000 
	C605.670532,111.891014 601.986450,115.377632 597.454712,116.270111 
	C592.612305,117.223770 587.096436,119.535858 582.500000,115.000000 
"/>
<path fill="none" opacity="1.000000" stroke="#000000" stroke-linecap="round" stroke-linejoin="round" stroke-width="5.000000"
	d="
M621.500000,172.999985 
	C617.500000,176.333313 613.500000,179.666641 609.500000,182.999985 
"/>
<path fill="none" opacity="1.000000" stroke="#000000" stroke-linecap="round" stroke-linejoin="round" stroke-width="3.000000"
	d="
M43.000000,80.000000 
	C37.341248,79.668892 34.843658,84.982719 30.500000,87.000000 
"/>
<path fill="none" opacity="1.000000" stroke="#000000" stroke-linecap="round" stroke-linejoin="round" stroke-width="3.000000"
	d="
M665.000000,80.000000 
	C659.341248,79.668892 656.843628,84.982719 652.500000,87.000000 
"/>
<path fill="none" opacity="1.000000" stroke="#000000" stroke-linecap="round" stroke-linejoin="round" stroke-width="2.000000"
	d="
M206.500000,77.500000 
	C203.954681,78.015366 201.821152,79.621857 200.629562,81.578888 
	C199.005798,84.245651 196.885620,84.092148 194.500000,84.000000 
"/>
<path fill="none" opacity="1.000000" stroke="#000000" stroke-linecap="round" stroke-linejoin="round" stroke-width="3.000000"
	d="
M587.500000,149.000000 
	C584.721680,152.383484 580.035828,154.553101 580.500000,160.000000 
"/>
<path fill="none" opacity="1.000000" stroke="#000000" stroke-linecap="round" stroke-linejoin="round" stroke-width="6.000000"
	d="
M590.500000,145.500000 
	C590.780884,148.893768 591.798401,152.054901 593.588928,155.029922 
	C588.057190,158.281052 581.581604,159.496521 576.500000,163.500000 
"/>
<path fill="none" opacity="1.000000" stroke="#000000" stroke-linecap="round" stroke-linejoin="round" stroke-width="6.000000"
	d="
M697.000000,125.000000 
	C695.927185,127.906242 695.910095,130.706802 697.475952,133.513428 
	C699.107727,136.438187 699.806519,139.598022 700.071045,142.994461 
	C700.737305,151.548187 699.928284,153.263443 692.000000,157.500000 
"/>
<path fill="none" opacity="1.000000" stroke="#000000" stroke-linecap="round" stroke-linejoin="round" stroke-width="6.000000"
	d="
M75.000000,125.000000 
	C73.927208,127.906242 73.910065,130.706802 75.475937,133.513428 
	C77.107712,136.438187 77.806435,139.598022 78.070999,142.994476 
	C78.737274,151.548218 77.928276,153.263443 70.000000,157.500000 
"/>
<path fill="none" opacity="1.000000" stroke="#000000" stroke-linecap="round" stroke-linejoin="round" stroke-width="6.000000"
	d="
M594.000000,155.500000 
	C600.084778,153.651184 606.338562,154.941345 612.502258,154.534576 
	C614.233704,154.420303 615.792542,155.175110 617.000000,156.500000 
"/>
<path fill="none" opacity="1.000000" stroke="#000000" stroke-linecap="round" stroke-linejoin="round" stroke-width="5.000000"
	d="
M579.500000,165.000000 
	C583.689209,169.008942 588.891357,166.683624 593.503967,166.760254 
	C598.153870,166.837509 602.644165,166.702591 607.000000,168.500000 
"/>
<path fill="none" opacity="1.000000" stroke="#000000" stroke-linecap="round" stroke-linejoin="round" stroke-width="2.000000"
	d="
M425.500000,103.000000 
	C422.333344,105.000000 419.166656,107.000000 416.000000,109.000000 
"/>
<path fill="none" opacity="1.000000" stroke="#000000" stroke-linecap="round" stroke-linejoin="round" stroke-width="3.000000"
	d="
M710.500000,137.000000 
	C707.669739,139.210159 704.488586,140.679611 701.000000,141.500000 
"/>
<path fill="none" opacity="1.000000" stroke="#000000" stroke-linecap="round" stroke-linejoin="round" stroke-width="3.000000"
	d="
M88.500000,137.000000 
	C85.669724,139.210159 82.488586,140.679611 79.000000,141.500000 
"/>
<path fill="none" opacity="1.000000" stroke="#000000" stroke-linecap="round" stroke-linejoin="round" stroke-width="5.000000"
	d="
M595.000000,118.000000 
	C595.000000,124.000000 595.049500,130.000656 594.970886,135.999619 
	C594.946167,137.882172 596.094299,139.305038 596.500000,141.000000 
"/>
<path fill="none" opacity="1.000000" stroke="#000000" stroke-linecap="round" stroke-linejoin="round" stroke-width="2.000000"
	d="
M1039.500000,103.000046 
	C1036.333374,105.000046 1033.166748,107.000046 1030.000000,109.000046 
"/>
<path fill="none" opacity="1.000000" stroke="#000000" stroke-linecap="round" stroke-linejoin="round" stroke-width="6.000000"
	d="
M603.500000,96.500000 
	C601.051208,94.198906 597.837769,92.751923 595.106506,94.653046 
	C591.683655,97.035576 593.440979,100.768822 594.500000,104.000000 
"/>
<path fill="none" opacity="1.000000" stroke="#000000" stroke-linecap="round" stroke-linejoin="round" stroke-width="3.000000"
	d="
M707.000000,131.500000 
	C705.107727,134.012894 701.925537,134.375854 699.500000,136.000000 
"/>
<path fill="none" opacity="1.000000" stroke="#000000" stroke-linecap="round" stroke-linejoin="round" stroke-width="3.000000"
	d="
M85.000000,131.500000 
	C83.107735,134.012894 79.925514,134.375854 77.500000,136.000000 
"/>
<path fill="none" opacity="1.000000" stroke="#000000" stroke-linecap="round" stroke-linejoin="round" stroke-width="3.000000"
	d="
M292.500000,119.500000 
	C290.333344,120.689995 288.166656,119.585907 286.000000,119.500000 
"/>
<path fill="none" opacity="1.000000" stroke="#000000" stroke-linecap="round" stroke-linejoin="round" stroke-width="2.000000"
	d="
M592.500000,65.500000 
	C589.989197,66.741890 588.930298,69.072746 588.000000,71.500000 
"/>
<path fill="none" opacity="1.000000" stroke="#000000" stroke-linecap="round" stroke-linejoin="round" stroke-width="3.000000"
	d="
M279.000000,143.000000 
	C281.094757,144.101303 283.246948,144.456528 285.500000,143.500000 
"/>
<path fill="none" opacity="1.000000" stroke="#000000" stroke-linecap="round" stroke-linejoin="round" stroke-width="3.000000"
	d="
M898.500000,134.000000 
	C895.869141,133.158066 894.741760,137.202332 892.000000,136.000000 
"/>
<path fill="none" opacity="1.000000" stroke="#000000" stroke-linecap="round" stroke-linejoin="round" stroke-width="2.000000"
	d="
M154.500000,79.500000 
	C152.660751,80.643013 150.691818,81.267273 148.500000,81.000000 
"/>
<path fill="none" opacity="1.000000" stroke="#000000" stroke-linecap="round" stroke-linejoin="round" stroke-width="3.000000"
	d="
M654.500000,169.000000 
	C652.500000,170.666656 650.500000,172.333328 648.500000,174.000000 
"/>
<path fill="none" opacity="1.000000" stroke="#000000" stroke-linecap="round" stroke-linejoin="round" stroke-width="3.000000"
	d="
M32.499992,169.000000 
	C30.499994,170.666656 28.499994,172.333328 26.499994,174.000000 
"/>
<path fill="none" opacity="1.000000" stroke="#000000" stroke-linecap="round" stroke-linejoin="round" stroke-width="3.000000"
	d="
M303.500000,124.000000 
	C301.500000,124.000000 299.500000,124.000000 297.500000,124.000000 
"/>
<path fill="none" opacity="1.000000" stroke="#000000" stroke-linecap="round" stroke-linejoin="round" stroke-width="3.000000"
	d="
M281.500000,151.500000 
	C279.728180,152.343353 277.838623,151.891678 276.000000,152.000000 
"/>
<path fill="none" opacity="1.000000" stroke="#000000" stroke-linecap="round" stroke-linejoin="round" stroke-width="2.000000"
	d="
M767.500000,145.500000 
	C765.617615,146.225388 764.632812,148.925476 762.000000,148.000000 
"/>
<path fill="none" opacity="1.000000" stroke="#000000" stroke-linecap="round" stroke-linejoin="round" stroke-width="3.000000"
	d="
M956.500000,132.000000 
	C958.791443,132.665741 961.023193,133.092834 962.500000,130.500000 
	C964.451111,132.234268 966.654846,132.326889 969.000000,131.500000 
"/>
<path fill="none" opacity="1.000000" stroke="#000000" stroke-linecap="round" stroke-linejoin="round" stroke-width="3.000000"
	d="
M315.000000,75.000000 
	C312.944885,74.686852 311.321838,75.957893 309.500000,76.500000 
"/>
<path fill="none" opacity="1.000000" stroke="#000000" stroke-linecap="round" stroke-linejoin="round" stroke-width="3.000000"
	d="
M39.000004,176.500000 
	C37.166668,178.000000 35.333336,179.500000 33.500004,181.000000 
"/>
<path fill="none" opacity="1.000000" stroke="#000000" stroke-linecap="round" stroke-linejoin="round" stroke-width="3.000000"
	d="
M313.000000,84.000000 
	C311.166656,84.000000 309.333344,84.000000 307.500000,84.000000 
"/>
<path fill="none" opacity="1.000000" stroke="#000000" stroke-linecap="round" stroke-linejoin="round" stroke-width="3.000000"
	d="
M661.000000,176.500000 
	C659.166687,178.000000 657.333313,179.500000 655.500000,181.000000 
"/>
<path fill="none" opacity="1.000000" stroke="#000000" stroke-linecap="round" stroke-linejoin="round" stroke-width="2.000000"
	d="
M769.500000,113.500000 
	C767.879333,114.281670 766.635986,116.006638 764.500000,115.500000 
"/>
<path fill="none" opacity="1.000000" stroke="#000000" stroke-linecap="round" stroke-linejoin="round" stroke-width="2.000000"
	d="
M315.500000,59.500000 
	C314.065887,60.775158 311.712189,58.985081 310.500000,61.000000 
"/>
<path fill="none" opacity="1.000000" stroke="#000000" stroke-linecap="round" stroke-linejoin="round" stroke-width="2.000000"
	d="
M1072.500000,156.500015 
	C1070.833374,157.166672 1069.166626,157.833344 1067.500000,158.500015 
"/>
<path fill="none" opacity="1.000000" stroke="#000000" stroke-linecap="round" stroke-linejoin="round" stroke-width="2.000000"
	d="
M458.500000,156.500015 
	C456.833344,157.166672 455.166656,157.833344 453.500000,158.500015 
"/>
<path fill="none" opacity="1.000000" stroke="#000000" stroke-linecap="round" stroke-linejoin="round" stroke-width="2.000000"
	d="
M164.000000,161.500000 
	C162.431747,161.526169 160.789536,161.219574 159.500000,162.500000 
"/>
<path fill="none" opacity="1.000000" stroke="#000000" stroke-linecap="round" stroke-linejoin="round" stroke-width="2.000000"
	d="
M578.500000,151.500000 
	C577.172119,152.516403 575.789978,153.369843 574.000000,153.000000 
"/>
<path fill="none" opacity="1.000000" stroke="#000000" stroke-linecap="round" stroke-linejoin="round" stroke-width="2.000000"
	d="
M448.500000,163.500000 
	C447.210449,164.780426 445.568268,164.473831 444.000000,164.500000 
"/>
<path fill="none" opacity="1.000000" stroke="#000000" stroke-linecap="round" stroke-linejoin="round" stroke-width="2.000000"
	d="
M1062.500000,163.500000 
	C1061.210449,164.780426 1059.568237,164.473831 1058.000000,164.500000 
"/>
<path fill="none" opacity="1.000000" stroke="#000000" stroke-linecap="round" stroke-linejoin="round" stroke-width="2.000000"
	d="
M785.500000,170.000000 
	C784.166687,170.166656 782.833313,170.333328 781.500000,170.500000 
"/>
<path fill="none" opacity="1.000000" stroke="#000000" stroke-linecap="round" stroke-linejoin="round" stroke-width="2.000000"
	d="
M418.000000,84.000000 
	C416.762451,84.716530 415.479675,85.251984 414.000000,85.000000 
"/>
<path fill="none" opacity="1.000000" stroke="#000000" stroke-linecap="round" stroke-linejoin="round" stroke-width="2.000000"
	d="
M1032.000000,84.000000 
	C1030.762451,84.716530 1029.479614,85.251984 1028.000000,85.000000 
"/>
<path fill="none" opacity="1.000000" stroke="#000000" stroke-linecap="round" stroke-linejoin="round" stroke-width="2.000000"
	d="
M198.500000,91.500000 
	C196.997162,91.827652 196.346405,93.859489 194.500000,93.500000 
"/>
<path fill="none" opacity="1.000000" stroke="#000000" stroke-linecap="round" stroke-linejoin="round" stroke-width="2.000000"
	d="
M168.000000,101.500000 
	C166.666672,101.666664 165.333328,101.833336 164.000000,102.000000 
"/>
<path fill="none" opacity="1.000000" stroke="#000000" stroke-linecap="round" stroke-linejoin="round" stroke-width="2.000000"
	d="
M197.500000,101.500008 
	C196.333328,101.666672 195.166672,101.833344 194.000000,102.000008 
"/>
<path fill="none" opacity="1.000000" stroke="#000000" stroke-linecap="round" stroke-linejoin="round" stroke-width="2.000000"
	d="
M148.500000,142.499985 
	C147.333328,142.666656 146.166672,142.833328 145.000000,142.999985 
"/>
<path fill="none" opacity="1.000000" stroke="#000000" stroke-linecap="round" stroke-linejoin="round" stroke-width="2.000000"
	d="
M1070.000000,148.000000 
	C1071.200073,147.783493 1071.963623,146.039337 1073.500000,147.000000 
"/>
<path fill="none" opacity="1.000000" stroke="#000000" stroke-linecap="round" stroke-linejoin="round" stroke-width="2.000000"
	d="
M456.000000,148.000000 
	C457.200043,147.783493 457.963623,146.039337 459.500000,147.000000 
"/>
</svg>